<mxfile host="app.diagrams.net" agent="Mozilla/5.0 (X11; Linux x86_64) AppleWebKit/537.36 (KHTML, like Gecko) Chrome/134.0.0.0 Safari/537.36" version="26.1.0">
  <diagram name="Page-1" id="74b105a0-9070-1c63-61bc-23e55f88626e">
    <mxGraphModel dx="1195" dy="633" grid="1" gridSize="10" guides="1" tooltips="1" connect="1" arrows="1" fold="1" page="1" pageScale="1.5" pageWidth="1169" pageHeight="826" background="none" math="0" shadow="0">
      <root>
        <mxCell id="0" style=";html=1;" />
        <mxCell id="1" style=";html=1;" parent="0" />
        <mxCell id="10b056a9c633e61c-30" value="CinemaFlix Architecture" style="text;strokeColor=none;fillColor=none;html=1;fontSize=24;fontStyle=1;verticalAlign=middle;align=center;" parent="1" vertex="1">
          <mxGeometry x="80" y="40" width="1590" height="40" as="geometry" />
        </mxCell>
        <mxCell id="4QaozaVHydAFFqWDVu0d-4" value="Backend" style="strokeWidth=2;dashed=0;align=center;fontSize=12;shape=rect;verticalLabelPosition=top;verticalAlign=bottom;fillColor=#c0f5a9;labelPosition=center;" parent="1" vertex="1">
          <mxGeometry x="805" y="130" width="150" height="90" as="geometry" />
        </mxCell>
        <mxCell id="4QaozaVHydAFFqWDVu0d-6" value="Website" style="strokeWidth=2;dashed=0;align=center;fontSize=12;shape=rect;verticalLabelPosition=top;verticalAlign=bottom;fillColor=#c0f5a9;labelPosition=center;" parent="1" vertex="1">
          <mxGeometry x="515" y="130" width="150" height="90" as="geometry" />
        </mxCell>
        <mxCell id="4QaozaVHydAFFqWDVu0d-8" value="MovieDB API" style="strokeWidth=2;dashed=0;align=center;fontSize=12;shape=rect;verticalLabelPosition=top;verticalAlign=bottom;fillColor=#c0f5a9;labelPosition=center;" parent="1" vertex="1">
          <mxGeometry x="1085" y="130" width="150" height="90" as="geometry" />
        </mxCell>
        <mxCell id="4QaozaVHydAFFqWDVu0d-10" style="edgeStyle=orthogonalEdgeStyle;rounded=0;orthogonalLoop=1;jettySize=auto;html=1;entryX=0;entryY=0.5;entryDx=0;entryDy=0;exitX=1;exitY=0.5;exitDx=0;exitDy=0;" parent="1" source="4QaozaVHydAFFqWDVu0d-4" target="4QaozaVHydAFFqWDVu0d-8" edge="1">
          <mxGeometry relative="1" as="geometry">
            <mxPoint x="970" y="175" as="sourcePoint" />
          </mxGeometry>
        </mxCell>
        <mxCell id="4QaozaVHydAFFqWDVu0d-11" style="edgeStyle=orthogonalEdgeStyle;rounded=0;orthogonalLoop=1;jettySize=auto;html=1;entryX=0;entryY=0.5;entryDx=0;entryDy=0;exitX=1;exitY=0.5;exitDx=0;exitDy=0;" parent="1" source="4QaozaVHydAFFqWDVu0d-6" target="4QaozaVHydAFFqWDVu0d-4" edge="1">
          <mxGeometry relative="1" as="geometry">
            <mxPoint x="690" y="180" as="sourcePoint" />
          </mxGeometry>
        </mxCell>
        <mxCell id="4QaozaVHydAFFqWDVu0d-12" value="Database" style="strokeWidth=2;dashed=0;align=center;fontSize=12;verticalLabelPosition=bottom;verticalAlign=top;shape=mxgraph.eip.message_store;fillColor=#c0f5a9" parent="1" vertex="1">
          <mxGeometry x="805" y="330" width="150" height="90" as="geometry" />
        </mxCell>
        <mxCell id="4QaozaVHydAFFqWDVu0d-13" style="edgeStyle=orthogonalEdgeStyle;rounded=0;orthogonalLoop=1;jettySize=auto;html=1;entryX=0.5;entryY=0;entryDx=0;entryDy=0;entryPerimeter=0;" parent="1" source="4QaozaVHydAFFqWDVu0d-4" target="4QaozaVHydAFFqWDVu0d-12" edge="1">
          <mxGeometry relative="1" as="geometry" />
        </mxCell>
        <mxCell id="KmxX4GkRNUicar-rTpyV-2" value="" style="shape=crossbar;whiteSpace=wrap;html=1;rounded=1;" vertex="1" parent="1">
          <mxGeometry x="560" y="190" width="60" height="20" as="geometry" />
        </mxCell>
        <mxCell id="KmxX4GkRNUicar-rTpyV-3" value="" style="shape=crossbar;whiteSpace=wrap;html=1;rounded=1;direction=south;" vertex="1" parent="1">
          <mxGeometry x="580" y="170" width="20" height="30" as="geometry" />
        </mxCell>
        <mxCell id="KmxX4GkRNUicar-rTpyV-4" value="" style="rounded=0;whiteSpace=wrap;html=1;" vertex="1" parent="1">
          <mxGeometry x="555" y="140" width="70" height="40" as="geometry" />
        </mxCell>
        <mxCell id="KmxX4GkRNUicar-rTpyV-5" value="" style="icon;html=1;image=img/clipart/Gear_128x128.png" vertex="1" parent="1">
          <mxGeometry x="850" y="145" width="60" height="60" as="geometry" />
        </mxCell>
        <mxCell id="KmxX4GkRNUicar-rTpyV-6" value="" style="shape=actor;whiteSpace=wrap;html=1;" vertex="1" parent="1">
          <mxGeometry x="370" y="140" width="40" height="60" as="geometry" />
        </mxCell>
        <mxCell id="KmxX4GkRNUicar-rTpyV-7" style="edgeStyle=orthogonalEdgeStyle;rounded=0;orthogonalLoop=1;jettySize=auto;html=1;entryX=-0.014;entryY=0.439;entryDx=0;entryDy=0;entryPerimeter=0;" edge="1" parent="1" source="KmxX4GkRNUicar-rTpyV-6" target="4QaozaVHydAFFqWDVu0d-6">
          <mxGeometry relative="1" as="geometry" />
        </mxCell>
        <mxCell id="KmxX4GkRNUicar-rTpyV-10" value="External API" style="label;whiteSpace=wrap;html=1;align=center;verticalAlign=bottom;spacingLeft=0;spacingBottom=4;imageAlign=center;imageVerticalAlign=top;image=img/clipart/Gear_128x128.png" vertex="1" parent="1">
          <mxGeometry x="1122.5" y="135" width="75" height="80" as="geometry" />
        </mxCell>
      </root>
    </mxGraphModel>
  </diagram>
</mxfile>
